<?xml version="1.0" encoding="UTF-8" standalone="no"?>
<!DOCTYPE svg PUBLIC "-//W3C//DTD SVG 1.1//EN"
 "http://www.w3.org/Graphics/SVG/1.1/DTD/svg11.dtd">
<!-- Generated by graphviz version 2.43.0 (0)
 -->
<!-- Title: G Pages: 1 -->
<svg width="805pt" height="566pt"
 viewBox="0.00 0.00 805.00 566.00" xmlns="http://www.w3.org/2000/svg" xmlns:xlink="http://www.w3.org/1999/xlink">
<g id="graph0" class="graph" transform="scale(1 1) rotate(0) translate(4 562)">
<title>G</title>
<polygon fill="white" stroke="transparent" points="-4,4 -4,-562 801,-562 801,4 -4,4"/>
<g id="clust1" class="cluster">
<title>cluster_root</title>
<g id="a_clust1"><a xlink:title="eventq_index=0&#10;full_system=false&#10;sim_quantum=0&#10;time_sync_enable=false&#10;time_sync_period=100000000000&#10;time_sync_spin_threshold=100000000">
<path fill="#bab6ae" stroke="#000000" d="M20,-8C20,-8 777,-8 777,-8 783,-8 789,-14 789,-20 789,-20 789,-538 789,-538 789,-544 783,-550 777,-550 777,-550 20,-550 20,-550 14,-550 8,-544 8,-538 8,-538 8,-20 8,-20 8,-14 14,-8 20,-8"/>
<text text-anchor="middle" x="398.5" y="-534.8" font-family="Arial" font-size="14.00" fill="#000000">root </text>
<text text-anchor="middle" x="398.5" y="-519.8" font-family="Arial" font-size="14.00" fill="#000000">: Root</text>
</a>
</g>
</g>
<g id="clust2" class="cluster">
<title>cluster_system</title>
<g id="a_clust2"><a xlink:title="auto_unlink_shared_backstore=false&#10;cache_line_size=64&#10;eventq_index=0&#10;exit_on_work_items=false&#10;external_memory_ranges=&#10;init_param=0&#10;m5ops_base=0&#10;mem_mode=atomic&#10;mem_ranges=0:536870912&#10;memories=system.mem_ctrls.dram&#10;mmap_using_noreserve=false&#10;multi_thread=false&#10;&#10;um_work_ids=16&#10;&#13;eadfile=&#10;&#13;edirect_paths=system.redirect_paths0 system.redirect_paths1 system.redirect_paths2&#10;shadow_rom_ranges=&#10;shared_backstore=&#10;symbolfile=&#10;thermal_components=&#10;thermal_model=Null&#10;work_begin_ckpt_count=0&#10;work_begin_cpu_id_exit=&#45;1&#10;work_begin_exit_count=0&#10;work_cpus_ckpt_count=0&#10;work_end_ckpt_count=0&#10;work_end_exit_count=0&#10;work_item_id=&#45;1&#10;workload=system.workload">
<path fill="#e4e7eb" stroke="#000000" d="M28,-16C28,-16 769,-16 769,-16 775,-16 781,-22 781,-28 781,-28 781,-492 781,-492 781,-498 775,-504 769,-504 769,-504 28,-504 28,-504 22,-504 16,-498 16,-492 16,-492 16,-28 16,-28 16,-22 22,-16 28,-16"/>
<text text-anchor="middle" x="398.5" y="-488.8" font-family="Arial" font-size="14.00" fill="#000000">system </text>
<text text-anchor="middle" x="398.5" y="-473.8" font-family="Arial" font-size="14.00" fill="#000000">: System</text>
</a>
</g>
</g>
<g id="clust4" class="cluster">
<title>cluster_system_cpu</title>
<g id="a_clust4"><a xlink:title="branchPred=Null&#10;checker=Null&#10;clk_domain=system.cpu_clk_domain&#10;cpu_id=0&#10;decoder=system.cpu.decoder&#10;do_checkpoint_insts=true&#10;do_statistics_insts=true&#10;eventq_index=0&#10;function_trace=false&#10;function_trace_start=0&#10;interrupts=system.cpu.interrupts&#10;isa=system.cpu.isa&#10;max_insts_all_threads=0&#10;max_insts_any_thread=0&#10;mmu=system.cpu.mmu&#10;&#10;umThreads=1&#10;power_gating_on_idle=false&#10;power_model=&#10;power_state=system.cpu.power_state&#10;progress_interval=0&#10;pwr_gating_latency=300&#10;simpoint_start_insts=&#10;simulate_data_stalls=false&#10;simulate_inst_stalls=false&#10;socket_id=0&#10;switched_out=false&#10;syscallRetryLatency=10000&#10;system=system&#10;tracer=system.cpu.tracer&#10;width=1&#10;workload=system.cpu.workload">
<path fill="#bbc6d9" stroke="#000000" d="M36,-24C36,-24 660,-24 660,-24 666,-24 672,-30 672,-36 672,-36 672,-264 672,-264 672,-270 666,-276 660,-276 660,-276 36,-276 36,-276 30,-276 24,-270 24,-264 24,-264 24,-36 24,-36 24,-30 30,-24 36,-24"/>
<text text-anchor="middle" x="348" y="-260.8" font-family="Arial" font-size="14.00" fill="#000000">cpu </text>
<text text-anchor="middle" x="348" y="-245.8" font-family="Arial" font-size="14.00" fill="#000000">: RiscvAtomicSimpleCPU</text>
</a>
</g>
</g>
<g id="clust5" class="cluster">
<title>cluster_system_cpu_mmu</title>
<g id="a_clust5"><a xlink:title="dtb=system.cpu.mmu.dtb&#10;eventq_index=0&#10;itb=system.cpu.mmu.itb&#10;pma_checker=system.cpu.mmu.pma_checker&#10;pmp=system.cpu.mmu.pmp">
<path fill="#bab6ae" stroke="#000000" d="M268,-32C268,-32 652,-32 652,-32 658,-32 664,-38 664,-44 664,-44 664,-218 664,-218 664,-224 658,-230 652,-230 652,-230 268,-230 268,-230 262,-230 256,-224 256,-218 256,-218 256,-44 256,-44 256,-38 262,-32 268,-32"/>
<text text-anchor="middle" x="460" y="-214.8" font-family="Arial" font-size="14.00" fill="#000000">mmu </text>
<text text-anchor="middle" x="460" y="-199.8" font-family="Arial" font-size="14.00" fill="#000000">: RiscvMMU</text>
</a>
</g>
</g>
<g id="clust6" class="cluster">
<title>cluster_system_cpu_mmu_itb</title>
<g id="a_clust6"><a xlink:title="entry_type=instruction&#10;eventq_index=0&#10;&#10;ext_level=Null&#10;pma_checker=system.cpu.mmu.pma_checker&#10;pmp=system.cpu.mmu.pmp&#10;size=64&#10;walker=system.cpu.mmu.itb.walker">
<path fill="#9f9c95" stroke="#000000" d="M476,-40C476,-40 644,-40 644,-40 650,-40 656,-46 656,-52 656,-52 656,-172 656,-172 656,-178 650,-184 644,-184 644,-184 476,-184 476,-184 470,-184 464,-178 464,-172 464,-172 464,-52 464,-52 464,-46 470,-40 476,-40"/>
<text text-anchor="middle" x="560" y="-168.8" font-family="Arial" font-size="14.00" fill="#000000">itb </text>
<text text-anchor="middle" x="560" y="-153.8" font-family="Arial" font-size="14.00" fill="#000000">: RiscvTLB</text>
</a>
</g>
</g>
<g id="clust7" class="cluster">
<title>cluster_system_cpu_mmu_itb_walker</title>
<g id="a_clust7"><a xlink:title="clk_domain=system.cpu_clk_domain&#10;eventq_index=0&#10;&#10;um_squash_per_cycle=4&#10;pma_checker=system.cpu.mmu.pma_checker&#10;pmp=system.cpu.mmu.pmp&#10;power_model=&#10;power_state=system.cpu.mmu.itb.walker.power_state&#10;system=system">
<path fill="#84827c" stroke="#000000" d="M484,-48C484,-48 636,-48 636,-48 642,-48 648,-54 648,-60 648,-60 648,-126 648,-126 648,-132 642,-138 636,-138 636,-138 484,-138 484,-138 478,-138 472,-132 472,-126 472,-126 472,-60 472,-60 472,-54 478,-48 484,-48"/>
<text text-anchor="middle" x="560" y="-122.8" font-family="Arial" font-size="14.00" fill="#000000">walker </text>
<text text-anchor="middle" x="560" y="-107.8" font-family="Arial" font-size="14.00" fill="#000000">: RiscvPagetableWalker</text>
</a>
</g>
</g>
<g id="clust9" class="cluster">
<title>cluster_system_cpu_mmu_dtb</title>
<g id="a_clust9"><a xlink:title="entry_type=data&#10;eventq_index=0&#10;&#10;ext_level=Null&#10;pma_checker=system.cpu.mmu.pma_checker&#10;pmp=system.cpu.mmu.pmp&#10;size=64&#10;walker=system.cpu.mmu.dtb.walker">
<path fill="#9f9c95" stroke="#000000" d="M276,-40C276,-40 444,-40 444,-40 450,-40 456,-46 456,-52 456,-52 456,-172 456,-172 456,-178 450,-184 444,-184 444,-184 276,-184 276,-184 270,-184 264,-178 264,-172 264,-172 264,-52 264,-52 264,-46 270,-40 276,-40"/>
<text text-anchor="middle" x="360" y="-168.8" font-family="Arial" font-size="14.00" fill="#000000">dtb </text>
<text text-anchor="middle" x="360" y="-153.8" font-family="Arial" font-size="14.00" fill="#000000">: RiscvTLB</text>
</a>
</g>
</g>
<g id="clust10" class="cluster">
<title>cluster_system_cpu_mmu_dtb_walker</title>
<g id="a_clust10"><a xlink:title="clk_domain=system.cpu_clk_domain&#10;eventq_index=0&#10;&#10;um_squash_per_cycle=4&#10;pma_checker=system.cpu.mmu.pma_checker&#10;pmp=system.cpu.mmu.pmp&#10;power_model=&#10;power_state=system.cpu.mmu.dtb.walker.power_state&#10;system=system">
<path fill="#84827c" stroke="#000000" d="M284,-48C284,-48 436,-48 436,-48 442,-48 448,-54 448,-60 448,-60 448,-126 448,-126 448,-132 442,-138 436,-138 436,-138 284,-138 284,-138 278,-138 272,-132 272,-126 272,-126 272,-60 272,-60 272,-54 278,-48 284,-48"/>
<text text-anchor="middle" x="360" y="-122.8" font-family="Arial" font-size="14.00" fill="#000000">walker </text>
<text text-anchor="middle" x="360" y="-107.8" font-family="Arial" font-size="14.00" fill="#000000">: RiscvPagetableWalker</text>
</a>
</g>
</g>
<g id="clust25" class="cluster">
<title>cluster_system_membus</title>
<g id="a_clust25"><a xlink:title="clk_domain=system.clk_domain&#10;eventq_index=0&#10;forward_latency=4&#10;frontend_latency=3&#10;header_latency=1&#10;max_outstanding_snoops=512&#10;max_routing_table_size=512&#10;point_of_coherency=true&#10;point_of_unification=true&#10;power_model=&#10;power_state=system.membus.power_state&#10;&#13;esponse_latency=2&#10;snoop_filter=system.membus.snoop_filter&#10;snoop_response_latency=4&#10;system=system&#10;use_default_range=false&#10;width=16">
<path fill="#6f798c" stroke="#000000" d="M304,-284C304,-284 564,-284 564,-284 570,-284 576,-290 576,-296 576,-296 576,-362 576,-362 576,-368 570,-374 564,-374 564,-374 304,-374 304,-374 298,-374 292,-368 292,-362 292,-362 292,-296 292,-296 292,-290 298,-284 304,-284"/>
<text text-anchor="middle" x="434" y="-358.8" font-family="Arial" font-size="14.00" fill="#000000">membus </text>
<text text-anchor="middle" x="434" y="-343.8" font-family="Arial" font-size="14.00" fill="#000000">: SystemXBar</text>
</a>
</g>
</g>
<g id="clust28" class="cluster">
<title>cluster_system_mem_ctrls</title>
<g id="a_clust28"><a xlink:title="clk_domain=system.clk_domain&#10;command_window=10000&#10;disable_sanity_check=false&#10;dram=system.mem_ctrls.dram&#10;eventq_index=0&#10;mem_sched_policy=frfcfs&#10;min_reads_per_switch=16&#10;min_writes_per_switch=16&#10;power_model=&#10;power_state=system.mem_ctrls.power_state&#10;qos_policy=Null&#10;qos_priorities=1&#10;qos_priority_escalation=false&#10;qos_q_policy=fifo&#10;qos_requestors= &#160;&#160;&#160;&#160;&#160;&#160;&#160;&#160;&#160;&#160;&#160;&#160;&#160;&#160;&#10;qos_syncro_scheduler=false&#10;qos_turnaround_policy=Null&#10;static_backend_latency=10000&#10;static_frontend_latency=10000&#10;system=system&#10;write_high_thresh_perc=85&#10;write_low_thresh_perc=50">
<path fill="#bab6ae" stroke="#000000" d="M692,-48C692,-48 761,-48 761,-48 767,-48 773,-54 773,-60 773,-60 773,-126 773,-126 773,-132 767,-138 761,-138 761,-138 692,-138 692,-138 686,-138 680,-132 680,-126 680,-126 680,-60 680,-60 680,-54 686,-48 692,-48"/>
<text text-anchor="middle" x="726.5" y="-122.8" font-family="Arial" font-size="14.00" fill="#000000">mem_ctrls </text>
<text text-anchor="middle" x="726.5" y="-107.8" font-family="Arial" font-size="14.00" fill="#000000">: MemCtrl</text>
</a>
</g>
</g>
<!-- system_system_port -->
<g id="node1" class="node">
<title>system_system_port</title>
<path fill="#b6b8bc" stroke="#000000" d="M399,-458C399,-458 321,-458 321,-458 315,-458 309,-452 309,-446 309,-446 309,-434 309,-434 309,-428 315,-422 321,-422 321,-422 399,-422 399,-422 405,-422 411,-428 411,-434 411,-434 411,-446 411,-446 411,-452 405,-458 399,-458"/>
<text text-anchor="middle" x="360" y="-436.3" font-family="Arial" font-size="14.00" fill="#000000">system_port</text>
</g>
<!-- system_membus_cpu_side_ports -->
<g id="node6" class="node">
<title>system_membus_cpu_side_ports</title>
<path fill="#586070" stroke="#000000" d="M408,-328C408,-328 312,-328 312,-328 306,-328 300,-322 300,-316 300,-316 300,-304 300,-304 300,-298 306,-292 312,-292 312,-292 408,-292 408,-292 414,-292 420,-298 420,-304 420,-304 420,-316 420,-316 420,-322 414,-328 408,-328"/>
<text text-anchor="middle" x="360" y="-306.3" font-family="Arial" font-size="14.00" fill="#000000">cpu_side_ports</text>
</g>
<!-- system_system_port&#45;&gt;system_membus_cpu_side_ports -->
<g id="edge1" class="edge">
<title>system_system_port&#45;&gt;system_membus_cpu_side_ports</title>
<path fill="none" stroke="black" d="M360,-421.74C360,-400.36 360,-363.69 360,-338.44"/>
<polygon fill="black" stroke="black" points="363.5,-338.4 360,-328.4 356.5,-338.4 363.5,-338.4"/>
</g>
<!-- system_cpu_icache_port -->
<g id="node2" class="node">
<title>system_cpu_icache_port</title>
<path fill="#959ead" stroke="#000000" d="M236,-92C236,-92 164,-92 164,-92 158,-92 152,-86 152,-80 152,-80 152,-68 152,-68 152,-62 158,-56 164,-56 164,-56 236,-56 236,-56 242,-56 248,-62 248,-68 248,-68 248,-80 248,-80 248,-86 242,-92 236,-92"/>
<text text-anchor="middle" x="200" y="-70.3" font-family="Arial" font-size="14.00" fill="#000000">icache_port</text>
</g>
<!-- system_cpu_dcache_port -->
<g id="node3" class="node">
<title>system_cpu_dcache_port</title>
<path fill="#959ead" stroke="#000000" d="M121.5,-92C121.5,-92 44.5,-92 44.5,-92 38.5,-92 32.5,-86 32.5,-80 32.5,-80 32.5,-68 32.5,-68 32.5,-62 38.5,-56 44.5,-56 44.5,-56 121.5,-56 121.5,-56 127.5,-56 133.5,-62 133.5,-68 133.5,-68 133.5,-80 133.5,-80 133.5,-86 127.5,-92 121.5,-92"/>
<text text-anchor="middle" x="83" y="-70.3" font-family="Arial" font-size="14.00" fill="#000000">dcache_port</text>
</g>
<!-- system_cpu_mmu_itb_walker_port -->
<g id="node4" class="node">
<title>system_cpu_mmu_itb_walker_port</title>
<path fill="#6a6863" stroke="#000000" d="M522,-92C522,-92 492,-92 492,-92 486,-92 480,-86 480,-80 480,-80 480,-68 480,-68 480,-62 486,-56 492,-56 492,-56 522,-56 522,-56 528,-56 534,-62 534,-68 534,-68 534,-80 534,-80 534,-86 528,-92 522,-92"/>
<text text-anchor="middle" x="507" y="-70.3" font-family="Arial" font-size="14.00" fill="#000000">port</text>
</g>
<!-- system_cpu_mmu_dtb_walker_port -->
<g id="node5" class="node">
<title>system_cpu_mmu_dtb_walker_port</title>
<path fill="#6a6863" stroke="#000000" d="M375,-92C375,-92 345,-92 345,-92 339,-92 333,-86 333,-80 333,-80 333,-68 333,-68 333,-62 339,-56 345,-56 345,-56 375,-56 375,-56 381,-56 387,-62 387,-68 387,-68 387,-80 387,-80 387,-86 381,-92 375,-92"/>
<text text-anchor="middle" x="360" y="-70.3" font-family="Arial" font-size="14.00" fill="#000000">port</text>
</g>
<!-- system_membus_cpu_side_ports&#45;&gt;system_cpu_icache_port -->
<g id="edge2" class="edge">
<title>system_membus_cpu_side_ports&#45;&gt;system_cpu_icache_port</title>
<path fill="none" stroke="black" d="M290.7,-292.08C282.32,-287.85 274.46,-282.58 268,-276 216.38,-223.43 203.91,-130.32 200.93,-92.1"/>
<polygon fill="black" stroke="black" points="289.4,-295.33 299.96,-296.26 292.29,-288.95 289.4,-295.33"/>
</g>
<!-- system_membus_cpu_side_ports&#45;&gt;system_cpu_dcache_port -->
<g id="edge3" class="edge">
<title>system_membus_cpu_side_ports&#45;&gt;system_cpu_dcache_port</title>
<path fill="none" stroke="black" d="M289.94,-306.34C235.06,-302.83 164.52,-294.72 143,-276 87.77,-227.96 82.28,-131.45 82.47,-92.2"/>
<polygon fill="black" stroke="black" points="289.8,-309.83 299.99,-306.94 290.22,-302.85 289.8,-309.83"/>
</g>
<!-- system_membus_cpu_side_ports&#45;&gt;system_cpu_mmu_itb_walker_port -->
<g id="edge4" class="edge">
<title>system_membus_cpu_side_ports&#45;&gt;system_cpu_mmu_itb_walker_port</title>
<path fill="none" stroke="black" d="M416.2,-288.57C420.53,-287.02 424.84,-285.48 429,-284 439.2,-280.38 444.61,-283.91 452,-276 501.4,-223.13 507.18,-130.19 507.35,-92.06"/>
<polygon fill="black" stroke="black" points="414.96,-285.3 406.74,-291.97 417.33,-291.88 414.96,-285.3"/>
</g>
<!-- system_membus_cpu_side_ports&#45;&gt;system_cpu_mmu_dtb_walker_port -->
<g id="edge5" class="edge">
<title>system_membus_cpu_side_ports&#45;&gt;system_cpu_mmu_dtb_walker_port</title>
<path fill="none" stroke="black" d="M360,-281.68C360,-232.98 360,-132.49 360,-92.23"/>
<polygon fill="black" stroke="black" points="356.5,-281.79 360,-291.79 363.5,-281.79 356.5,-281.79"/>
</g>
<!-- system_membus_mem_side_ports -->
<g id="node7" class="node">
<title>system_membus_mem_side_ports</title>
<path fill="#586070" stroke="#000000" d="M556,-328C556,-328 450,-328 450,-328 444,-328 438,-322 438,-316 438,-316 438,-304 438,-304 438,-298 444,-292 450,-292 450,-292 556,-292 556,-292 562,-292 568,-298 568,-304 568,-304 568,-316 568,-316 568,-322 562,-328 556,-328"/>
<text text-anchor="middle" x="503" y="-306.3" font-family="Arial" font-size="14.00" fill="#000000">mem_side_ports</text>
</g>
<!-- system_mem_ctrls_port -->
<g id="node8" class="node">
<title>system_mem_ctrls_port</title>
<path fill="#94918b" stroke="#000000" d="M730,-92C730,-92 700,-92 700,-92 694,-92 688,-86 688,-80 688,-80 688,-68 688,-68 688,-62 694,-56 700,-56 700,-56 730,-56 730,-56 736,-56 742,-62 742,-68 742,-68 742,-80 742,-80 742,-86 736,-92 730,-92"/>
<text text-anchor="middle" x="715" y="-70.3" font-family="Arial" font-size="14.00" fill="#000000">port</text>
</g>
<!-- system_membus_mem_side_ports&#45;&gt;system_mem_ctrls_port -->
<g id="edge6" class="edge">
<title>system_membus_mem_side_ports&#45;&gt;system_mem_ctrls_port</title>
<path fill="none" stroke="black" d="M568.13,-301.1C602.26,-295.72 639.51,-287.47 652,-276 701.8,-230.3 712.53,-145.81 714.65,-102.37"/>
<polygon fill="black" stroke="black" points="718.15,-102.38 715.02,-92.25 711.15,-102.12 718.15,-102.38"/>
</g>
</g>
</svg>
